<?xml version="1.0" encoding="UTF-8" standalone="no"?>
<!-- Created with Inkscape (http://www.inkscape.org/) -->

<svg
   width="297mm"
   height="210mm"
   viewBox="0 0 297 210"
   version="1.1"
   id="svg11338"
   inkscape:version="1.1.2 (b8e25be8, 2022-02-05)"
   sodipodi:docname="drawing.svg"
   xmlns:inkscape="http://www.inkscape.org/namespaces/inkscape"
   xmlns:sodipodi="http://sodipodi.sourceforge.net/DTD/sodipodi-0.dtd"
   xmlns="http://www.w3.org/2000/svg"
   xmlns:svg="http://www.w3.org/2000/svg">
  <sodipodi:namedview
     id="namedview11340"
     pagecolor="#ffffff"
     bordercolor="#666666"
     borderopacity="1.0"
     inkscape:pageshadow="2"
     inkscape:pageopacity="0.0"
     inkscape:pagecheckerboard="0"
     inkscape:document-units="mm"
     showgrid="false"
     inkscape:zoom="0.49531425"
     inkscape:cx="988.26149"
     inkscape:cy="545.10848"
     inkscape:window-width="1312"
     inkscape:window-height="778"
     inkscape:window-x="0"
     inkscape:window-y="25"
     inkscape:window-maximized="0"
     inkscape:current-layer="layer1" />
  <defs
     id="defs11335" />
  <g
     inkscape:label="Layer 1"
     inkscape:groupmode="layer"
     id="layer1">
    <g
       id="g64460"
       transform="matrix(0.33072917,0,0,-0.33072917,-592.76445,160.23445)">
      <g
         id="g1208"
         transform="translate(1966.8252,179.4818)">
        <path
           d="m 0,0 c -7.625,-7.621 -19.982,-7.621 -27.607,0 -7.621,7.621 -7.621,19.979 0,27.592 7.625,7.621 19.982,7.621 27.607,0 C 7.605,19.979 7.605,7.621 0,0"
           style="fill:#000000;fill-opacity:1;fill-rule:nonzero;stroke:none"
           id="path1210"
           inkscape:connector-curvature="0" />
      </g>
      <g
         id="g1212"
         transform="translate(2062.4221,72.9021)">
        <path
           d="m 0,0 c -8.023,-8.009 -21.031,-8.009 -29.034,0 -8.029,8.029 -8.029,21.011 0,29.04 8.003,8.009 21.011,8.009 29.034,0 C 8.009,21.011 8.009,8.029 0,0"
           style="fill:#000000;fill-opacity:1;fill-rule:nonzero;stroke:none"
           id="path1214"
           inkscape:connector-curvature="0" />
      </g>
      <g
         id="g1216"
         transform="translate(2027.7192,149.4503)">
        <path
           d="m 0,0 c -7.101,-7.08 -18.611,-7.08 -25.691,0 -7.101,7.101 -7.101,18.611 0,25.701 7.08,7.101 18.59,7.101 25.691,0 C 7.086,18.611 7.086,7.101 0,0"
           style="fill:#000000;fill-opacity:1;fill-rule:nonzero;stroke:none"
           id="path1218"
           inkscape:connector-curvature="0" />
      </g>
      <g
         id="g1220"
         transform="translate(1993.843,200.5806)">
        <path
           d="m 0,0 c -8.41,0 -15.247,6.819 -15.247,15.251 0,8.432 6.837,15.251 15.247,15.251 8.428,0 15.251,-6.819 15.251,-15.251 C 15.251,6.819 8.428,0 0,0"
           style="fill:#000000;fill-opacity:1;fill-rule:nonzero;stroke:none"
           id="path1222"
           inkscape:connector-curvature="0" />
      </g>
      <g
         id="g1224"
         transform="translate(2053.062,192.1281)">
        <path
           d="m 0,0 c -8.422,0 -15.251,6.808 -15.251,15.221 0,8.422 6.808,15.251 15.251,15.251 8.397,0 15.247,-6.829 15.247,-15.251 C 15.247,6.828 8.397,0 0,0"
           style="fill:#000000;fill-opacity:1;fill-rule:nonzero;stroke:none"
           id="path1226"
           inkscape:connector-curvature="0" />
      </g>
      <g
         id="g1228"
         transform="translate(2075.863,112.4704)">
        <path
           d="m 0,0 c -5.734,0 -10.404,4.659 -10.404,10.4 0,5.734 4.67,10.393 10.404,10.393 5.758,0 10.404,-4.659 10.404,-10.393 C 10.404,4.659 5.758,0 0,0"
           style="fill:#000000;fill-opacity:1;fill-rule:nonzero;stroke:none"
           id="path1230"
           inkscape:connector-curvature="0" />
      </g>
      <g
         id="g1232"
         transform="translate(2104.6052,137.9419)">
        <path
           d="m 0,0 c -11.983,-0.021 -21.722,9.703 -21.722,21.706 0,11.973 9.739,21.718 21.722,21.718 11.998,0 21.717,-9.724 21.717,-21.718 C 21.717,9.724 11.998,0 0,0"
           style="fill:#000000;fill-opacity:1;fill-rule:nonzero;stroke:none"
           id="path1234"
           inkscape:connector-curvature="0" />
      </g>
      <g
         id="g1236"
         transform="translate(2021.4052,241.4112)">
        <path
           d="m 0,0 c -7.379,6.275 -8.282,17.349 -2.008,24.744 6.3,7.383 17.374,8.28 24.753,1.986 C 30.119,20.456 31.027,9.381 24.747,1.987 18.473,-5.396 7.378,-6.284 0,0"
           style="fill:#000000;fill-opacity:1;fill-rule:nonzero;stroke:none"
           id="path1238"
           inkscape:connector-curvature="0" />
      </g>
      <g
         id="g1240"
         transform="translate(1945.6376,129.6946)">
        <path
           d="m 0,0 c -5.778,5.778 -5.778,15.155 0,20.942 5.791,5.795 15.168,5.795 20.946,0 C 26.737,15.155 26.737,5.795 20.946,0 15.168,-5.777 5.791,-5.777 0,0"
           style="fill:#000000;fill-opacity:1;fill-rule:nonzero;stroke:none"
           id="path1242"
           inkscape:connector-curvature="0" />
      </g>
      <g
         id="g1244"
         transform="translate(1999.6752,114.0997)">
        <path
           d="m 0,0 c 0,5.028 4.069,9.097 9.098,9.097 5.011,0 9.083,-4.069 9.083,-9.097 0,-5.008 -4.072,-9.083 -9.083,-9.083 C 4.069,-9.083 0,-5.008 0,0"
           style="fill:#000000;fill-opacity:1;fill-rule:nonzero;stroke:none"
           id="path1246"
           inkscape:connector-curvature="0" />
      </g>
      <g
         id="g1248"
         transform="translate(1946.6873,93.7209)">
        <path
           d="m 0,0 c 0,5.881 4.761,10.661 10.641,10.661 5.886,0 10.662,-4.78 10.662,-10.661 0,-5.88 -4.776,-10.642 -10.662,-10.642 C 4.761,-10.661 0,-5.88 0,0"
           style="fill:#000000;fill-opacity:1;fill-rule:nonzero;stroke:none"
           id="path1250"
           inkscape:connector-curvature="0" />
      </g>
      <g
         id="g1252"
         transform="translate(2116.7043,205.4017)">
        <path
           d="m 0,0 c 0,-9.502 -7.691,-17.208 -17.198,-17.208 -9.501,0 -17.213,7.706 -17.213,17.208 0,9.502 7.712,17.199 17.213,17.199 C -7.691,17.199 0,9.502 0,0"
           style="fill:#000000;fill-opacity:1;fill-rule:nonzero;stroke:none"
           id="path1254"
           inkscape:connector-curvature="0" />
      </g>
      <g
         id="g1256"
         transform="translate(2013.2196,161.8873)">
        <path
           d="M 0,0 19.557,92.891"
           style="fill:none;stroke:#000000;stroke-width:2;stroke-linecap:butt;stroke-linejoin:miter;stroke-miterlimit:10;stroke-dasharray:none;stroke-opacity:1"
           id="path1258"
           inkscape:connector-curvature="0" />
      </g>
      <g
         id="g1260"
         transform="translate(2014.8679,162.3087)">
        <path
           d="M 0,0 38.192,45.055"
           style="fill:none;stroke:#000000;stroke-width:2;stroke-linecap:butt;stroke-linejoin:miter;stroke-miterlimit:10;stroke-dasharray:none;stroke-opacity:1"
           id="path1262"
           inkscape:connector-curvature="0" />
      </g>
      <g
         id="g1264"
         transform="translate(2014.8679,162.3087)">
        <path
           d="M 0,0 84.631,43.088"
           style="fill:none;stroke:#000000;stroke-width:2;stroke-linecap:butt;stroke-linejoin:miter;stroke-miterlimit:10;stroke-dasharray:none;stroke-opacity:1"
           id="path1266"
           inkscape:connector-curvature="0" />
      </g>
      <g
         id="g1268"
         transform="translate(2014.8679,162.3087)">
        <path
           d="M 0,0 89.735,-2.655"
           style="fill:none;stroke:#000000;stroke-width:2;stroke-linecap:butt;stroke-linejoin:miter;stroke-miterlimit:10;stroke-dasharray:none;stroke-opacity:1"
           id="path1270"
           inkscape:connector-curvature="0" />
      </g>
      <g
         id="g1272"
         transform="translate(2014.8679,162.3087)">
        <path
           d="M 0,0 60.995,-39.442"
           style="fill:none;stroke:#000000;stroke-width:2;stroke-linecap:butt;stroke-linejoin:miter;stroke-miterlimit:10;stroke-dasharray:none;stroke-opacity:1"
           id="path1274"
           inkscape:connector-curvature="0" />
      </g>
      <g
         id="g1276"
         transform="translate(2008.7657,114.1065)">
        <path
           d="M 0,0 4.454,47.781"
           style="fill:none;stroke:#000000;stroke-width:2;stroke-linecap:butt;stroke-linejoin:miter;stroke-miterlimit:10;stroke-dasharray:none;stroke-opacity:1"
           id="path1278"
           inkscape:connector-curvature="0" />
      </g>
      <g
         id="g1280"
         transform="translate(2013.2196,161.8873)">
        <path
           d="M 0,0 34.678,-74.465"
           style="fill:none;stroke:#000000;stroke-width:2;stroke-linecap:butt;stroke-linejoin:miter;stroke-miterlimit:10;stroke-dasharray:none;stroke-opacity:1"
           id="path1282"
           inkscape:connector-curvature="0" />
      </g>
      <g
         id="g1284"
         transform="translate(1957.339,93.7307)">
        <path
           d="M 0,0 58.181,68.157"
           style="fill:none;stroke:#000000;stroke-width:2;stroke-linecap:butt;stroke-linejoin:miter;stroke-miterlimit:10;stroke-dasharray:none;stroke-opacity:1"
           id="path1286"
           inkscape:connector-curvature="0" />
      </g>
      <g
         id="g1288"
         transform="translate(1956.1161,140.1734)">
        <path
           d="M 0,0 59.404,21.714"
           style="fill:none;stroke:#000000;stroke-width:2;stroke-linecap:butt;stroke-linejoin:miter;stroke-miterlimit:10;stroke-dasharray:none;stroke-opacity:1"
           id="path1290"
           inkscape:connector-curvature="0" />
      </g>
      <g
         id="g1292"
         transform="translate(1953.0142,193.2777)">
        <path
           d="M 0,0 61.397,-30.969"
           style="fill:none;stroke:#000000;stroke-width:2;stroke-linecap:butt;stroke-linejoin:miter;stroke-miterlimit:10;stroke-dasharray:none;stroke-opacity:1"
           id="path1294"
           inkscape:connector-curvature="0" />
      </g>
      <g
         id="g1296"
         transform="translate(1993.8452,215.8318)">
        <path
           d="M 0,0 20.566,-53.523"
           style="fill:none;stroke:#000000;stroke-width:2;stroke-linecap:butt;stroke-linejoin:miter;stroke-miterlimit:10;stroke-dasharray:none;stroke-opacity:1"
           id="path1298"
           inkscape:connector-curvature="0" />
      </g>
      <g
         id="g1754"
         transform="translate(2157.5088,181.96)">
        <path
           d="m 0,0 h 17.666 c 21.253,0 30.684,16.604 30.684,46.623 0,28.558 -7.173,43.435 -29.223,43.435 L 0,90.058 Z M -2.656,92.448 H 20.19 c 24.972,0 30.816,-20.588 30.816,-45.825 0,-38.919 -15.01,-49.014 -34.801,-49.014 H -2.656 Z"
           style="fill:#000000;fill-opacity:1;fill-rule:nonzero;stroke:none"
           id="path1756"
           inkscape:connector-curvature="0" />
      </g>
      <g
         id="g1758"
         transform="translate(2157.5088,181.96)">
        <path
           d="m 0,0 h 17.666 c 21.253,0 30.684,16.604 30.684,46.623 0,28.558 -7.173,43.435 -29.223,43.435 L 0,90.058 Z M -2.656,92.448 H 20.19 c 24.972,0 30.816,-20.588 30.816,-45.825 0,-38.919 -15.01,-49.014 -34.801,-49.014 H -2.656 Z"
           style="fill:none;stroke:#000000;stroke-width:2;stroke-linecap:butt;stroke-linejoin:miter;stroke-miterlimit:10;stroke-dasharray:none;stroke-opacity:1"
           id="path1760"
           inkscape:connector-curvature="0" />
      </g>
      <g
         id="g1762"
         transform="translate(2242.5156,272.0176)">
        <path
           d="m 0,0 h -0.266 l -18.463,-59.241 h 37.192 z m -1.727,2.391 h 3.188 l 30.018,-94.839 h -2.656 l -9.696,30.816 h -38.653 l -9.697,-30.816 h -2.656 z"
           style="fill:#000000;fill-opacity:1;fill-rule:nonzero;stroke:none"
           id="path1764"
           inkscape:connector-curvature="0" />
      </g>
      <g
         id="g1766"
         transform="translate(2242.5156,272.0176)">
        <path
           d="m 0,0 h -0.266 l -18.463,-59.241 h 37.192 z m -1.727,2.391 h 3.188 l 30.018,-94.839 h -2.656 l -9.696,30.816 h -38.653 l -9.697,-30.816 h -2.656 z"
           style="fill:none;stroke:#000000;stroke-width:2;stroke-linecap:butt;stroke-linejoin:miter;stroke-miterlimit:10;stroke-dasharray:none;stroke-opacity:1"
           id="path1768"
           inkscape:connector-curvature="0" />
      </g>
      <g
         id="g1770"
         transform="translate(2289.5332,272.0176)">
        <path
           d="M 0,0 H -25.769 V 2.391 H 28.425 V 0 H 2.656 V -92.448 H 0 Z"
           style="fill:#000000;fill-opacity:1;fill-rule:nonzero;stroke:none"
           id="path1772"
           inkscape:connector-curvature="0" />
      </g>
      <g
         id="g1774"
         transform="translate(2289.5332,272.0176)">
        <path
           d="M 0,0 H -25.769 V 2.391 H 28.425 V 0 H 2.656 V -92.448 H 0 Z"
           style="fill:none;stroke:#000000;stroke-width:2;stroke-linecap:butt;stroke-linejoin:miter;stroke-miterlimit:10;stroke-dasharray:none;stroke-opacity:1"
           id="path1776"
           inkscape:connector-curvature="0" />
      </g>
      <g
         id="g1778"
         transform="translate(2338.2793,272.0176)">
        <path
           d="m 0,0 h -0.266 l -18.463,-59.241 h 37.192 z m -1.727,2.391 h 3.188 l 30.018,-94.839 h -2.656 l -9.696,30.816 h -38.653 l -9.697,-30.816 h -2.656 z"
           style="fill:#000000;fill-opacity:1;fill-rule:nonzero;stroke:none"
           id="path1780"
           inkscape:connector-curvature="0" />
      </g>
      <g
         id="g1782"
         transform="translate(2338.2793,272.0176)">
        <path
           d="m 0,0 h -0.266 l -18.463,-59.241 h 37.192 z m -1.727,2.391 h 3.188 l 30.018,-94.839 h -2.656 l -9.696,30.816 h -38.653 l -9.697,-30.816 h -2.656 z"
           style="fill:none;stroke:#000000;stroke-width:2;stroke-linecap:butt;stroke-linejoin:miter;stroke-miterlimit:10;stroke-dasharray:none;stroke-opacity:1"
           id="path1784"
           inkscape:connector-curvature="0" />
      </g>
      <g
         id="g1786"
         transform="translate(2154.8525,165.1123)">
        <path
           d="M 0,0 H 2.656 V -55.92 H 2.922 L 45.161,0 h 3.056 L 17.799,-39.981 50.873,-94.839 H 48.084 L 16.205,-41.974 2.656,-59.905 V -94.839 H 0 Z"
           style="fill:#000000;fill-opacity:1;fill-rule:nonzero;stroke:none"
           id="path1788"
           inkscape:connector-curvature="0" />
      </g>
      <g
         id="g1790"
         transform="translate(2154.8525,165.1123)">
        <path
           d="M 0,0 H 2.656 V -55.92 H 2.922 L 45.161,0 h 3.056 L 17.799,-39.981 50.873,-94.839 H 48.084 L 16.205,-41.974 2.656,-59.905 V -94.839 H 0 Z"
           style="fill:none;stroke:#000000;stroke-width:2;stroke-linecap:butt;stroke-linejoin:miter;stroke-miterlimit:10;stroke-dasharray:none;stroke-opacity:1"
           id="path1792"
           inkscape:connector-curvature="0" />
      </g>
      <g
         id="g1794"
         transform="translate(2238.3965,71.0703)">
        <path
           d="M 0,0 C 21.784,0 28.159,21.12 28.159,46.623 28.159,72.126 21.784,93.245 0,93.245 -22.049,93.245 -27.761,70.664 -27.761,46.623 -27.761,22.581 -22.049,0 0,0 m -0.133,-2.391 c -24.706,0 -30.284,25.503 -30.284,49.014 0,23.377 6.109,49.013 30.284,49.013 30.02,0 30.949,-36.528 30.949,-49.013 0,-12.486 -0.929,-49.014 -30.949,-49.014"
           style="fill:#000000;fill-opacity:1;fill-rule:nonzero;stroke:none"
           id="path1796"
           inkscape:connector-curvature="0" />
      </g>
      <g
         id="g1798"
         transform="translate(2238.3965,71.0703)">
        <path
           d="M 0,0 C 21.784,0 28.159,21.12 28.159,46.623 28.159,72.126 21.784,93.245 0,93.245 -22.049,93.245 -27.761,70.664 -27.761,46.623 -27.761,22.581 -22.049,0 0,0 Z m -0.133,-2.391 c -24.706,0 -30.284,25.503 -30.284,49.014 0,23.377 6.109,49.013 30.284,49.013 30.02,0 30.949,-36.528 30.949,-49.013 0,-12.486 -0.929,-49.014 -30.949,-49.014 z"
           style="fill:none;stroke:#000000;stroke-width:2;stroke-linecap:butt;stroke-linejoin:miter;stroke-miterlimit:10;stroke-dasharray:none;stroke-opacity:1"
           id="path1800"
           inkscape:connector-curvature="0" />
      </g>
      <g
         id="g1802"
         transform="translate(2278.7705,165.1123)">
        <path
           d="m 0,0 h 2.656 v -92.448 h 40.513 v -2.391 H 0 Z"
           style="fill:#000000;fill-opacity:1;fill-rule:nonzero;stroke:none"
           id="path1804"
           inkscape:connector-curvature="0" />
      </g>
      <g
         id="g1806"
         transform="translate(2278.7705,165.1123)">
        <path
           d="m 0,0 h 2.656 v -92.448 h 40.513 v -2.391 H 0 Z"
           style="fill:none;stroke:#000000;stroke-width:2;stroke-linecap:butt;stroke-linejoin:miter;stroke-miterlimit:10;stroke-dasharray:none;stroke-opacity:1"
           id="path1808"
           inkscape:connector-curvature="0" />
      </g>
      <g
         id="g1810"
         transform="translate(2329.6406,165.1123)">
        <path
           d="M 0,0 H 43.169 V -2.391 H 2.656 v -41.708 h 37.591 v -2.39 H 2.656 v -45.959 h 41.575 v -2.391 H 0 Z"
           style="fill:#000000;fill-opacity:1;fill-rule:nonzero;stroke:none"
           id="path1812"
           inkscape:connector-curvature="0" />
      </g>
      <g
         id="g1814"
         transform="translate(2329.6406,165.1123)">
        <path
           d="M 0,0 H 43.169 V -2.391 H 2.656 v -41.708 h 37.591 v -2.39 H 2.656 v -45.959 h 41.575 v -2.391 H 0 Z"
           style="fill:none;stroke:#000000;stroke-width:2;stroke-linecap:butt;stroke-linejoin:miter;stroke-miterlimit:10;stroke-dasharray:none;stroke-opacity:1"
           id="path1816"
           inkscape:connector-curvature="0" />
      </g>
      <g
         id="g1818"
         transform="translate(2380.5107,165.1123)">
        <path
           d="M 0,0 H 2.656 V -55.92 H 2.922 L 45.161,0 h 3.056 L 17.799,-39.981 50.873,-94.839 H 48.084 L 16.205,-41.974 2.656,-59.905 V -94.839 H 0 Z"
           style="fill:#000000;fill-opacity:1;fill-rule:nonzero;stroke:none"
           id="path1820"
           inkscape:connector-curvature="0" />
      </g>
      <g
         id="g1822"
         transform="translate(2380.5107,165.1123)">
        <path
           d="M 0,0 H 2.656 V -55.92 H 2.922 L 45.161,0 h 3.056 L 17.799,-39.981 50.873,-94.839 H 48.084 L 16.205,-41.974 2.656,-59.905 V -94.839 H 0 Z"
           style="fill:none;stroke:#000000;stroke-width:2;stroke-linecap:butt;stroke-linejoin:miter;stroke-miterlimit:10;stroke-dasharray:none;stroke-opacity:1"
           id="path1824"
           inkscape:connector-curvature="0" />
      </g>
      <g
         id="g1826"
         transform="translate(2454.3584,162.7217)">
        <path
           d="M 0,0 H -25.769 V 2.391 H 28.425 V 0 H 2.656 V -92.448 H 0 Z"
           style="fill:#000000;fill-opacity:1;fill-rule:nonzero;stroke:none"
           id="path1828"
           inkscape:connector-curvature="0" />
      </g>
      <g
         id="g1830"
         transform="translate(2454.3584,162.7217)">
        <path
           d="M 0,0 H -25.769 V 2.391 H 28.425 V 0 H 2.656 V -92.448 H 0 Z"
           style="fill:none;stroke:#000000;stroke-width:2;stroke-linecap:butt;stroke-linejoin:miter;stroke-miterlimit:10;stroke-dasharray:none;stroke-opacity:1"
           id="path1832"
           inkscape:connector-curvature="0" />
      </g>
      <path
         d="m 2488.093,165.112 h 2.656 V 70.273 h -2.656 z"
         style="fill:#000000;fill-opacity:1;fill-rule:nonzero;stroke:#000000;stroke-width:2;stroke-linecap:butt;stroke-linejoin:miter;stroke-miterlimit:10;stroke-dasharray:none;stroke-opacity:1"
         id="path1834"
         inkscape:connector-curvature="0" />
      <g
         id="g1836"
         transform="translate(2496.8574,165.1123)">
        <path
           d="M 0,0 H 2.656 L 28.425,-90.588 H 28.69 L 54.726,0 h 2.656 L 30.285,-94.839 h -3.454 z"
           style="fill:#000000;fill-opacity:1;fill-rule:nonzero;stroke:none"
           id="path1838"
           inkscape:connector-curvature="0" />
      </g>
      <g
         id="g1840"
         transform="translate(2496.8574,165.1123)">
        <path
           d="M 0,0 H 2.656 L 28.425,-90.588 H 28.69 L 54.726,0 h 2.656 L 30.285,-94.839 h -3.454 z"
           style="fill:none;stroke:#000000;stroke-width:2;stroke-linecap:butt;stroke-linejoin:miter;stroke-miterlimit:10;stroke-dasharray:none;stroke-opacity:1"
           id="path1842"
           inkscape:connector-curvature="0" />
      </g>
    </g>
  </g>
</svg>
